# xmcd
#
# Track frame offsets: 
#        150
#        9778
#        24644
#        38899
#        53534
#        69715
#        82034
#        95179
#        106703
#        124082
#        136279
#        148695
#
# Disc length: 2176 seconds
#
# Revision: 0
# Processed by: cddbd v1.5.2PL0 Copyright (c) Steve Scherf et al.
# Submitted via: ExactAudioCopyFreeDBPlugin 1.0
#
DISCID=9d087e0c
DTITLE=Chris Staples - Golden Age
DYEAR=1900
DGENRE=
TTITLE0=Relativly Permanent
TTITLE1=Golden Age
TTITLE2=Missionary
TTITLE3=Cheap Shades
TTITLE4=Full Color Dream
TTITLE5=Park Bench
TTITLE6=Always on my Mind
TTITLE7=Times Square
TTITLE8=Vacation
TTITLE9=Hepburn in Summertime
TTITLE10=Dog Blowing a Clarinet
TTITLE11=Diary
EXTD=
EXTT0=
EXTT1=
EXTT2=
EXTT3=
EXTT4=
EXTT5=
EXTT6=
EXTT7=
EXTT8=
EXTT9=
EXTT10=
EXTT11=
PLAYORDER=
